<svg width="1080" height="877" viewBox="0 0 1080 877" fill="none" xmlns="http://www.w3.org/2000/svg">
<g clip-path="url(#clip0_1_403)">
<path d="M-225.339 -349.204C-229.169 -341.426 -236.56 -330.247 -246.716 -320.821M-246.716 -320.821C-258.555 -309.831 -274.153 -301.223 -292.248 -303.158C-325.865 -306.753 -345.402 -324.434 -350.968 -332.825C-361.266 -327.395 -387.209 -318.845 -408.599 -328.086C-435.336 -339.638 -438.614 -362.362 -428.492 -379.529C-418.369 -396.696 -388.729 -401.611 -376.497 -388.222C-377.713 -405.896 -370.686 -443.833 -332.851 -454.195C-285.557 -467.147 -251.03 -418.411 -256.776 -394.81C-247.58 -399.812 -223.561 -406.395 -201.055 -392.718C-178.548 -379.042 -181.475 -354.071 -185.752 -343.295C-173.409 -347.53 -145.936 -350.248 -134.784 -327.237C-120.844 -298.474 -155.906 -272.133 -192.246 -299.793C-205.599 -291.855 -235.187 -284.946 -246.716 -320.821ZM-294.837 -396.045C-303.758 -401.823 -320.217 -395.831 -322.555 -380.17C-325.477 -360.594 -299.234 -339.778 -277.327 -361.412M-79.6114 -148.678C-74.8004 -142.178 -87.8641 -132.121 -96.3955 -140.51C-104.927 -148.899 -105.368 -157.859 -103.07 -167.299C-100.771 -176.74 -89.1876 -188.797 -71.1571 -187.439C-53.1266 -186.082 -24.9872 -160.091 -51.0566 -119.511C-77.126 -78.9317 -139.411 -105.573 -148.065 -133.992C-150.468 -141.88 -154.968 -148.334 -160.74 -153.355C-175.762 -166.421 -199.395 -169.772 -217.051 -163.412C-241.49 -154.608 -253.704 -111.516 -227.765 -91.6345C-201.827 -71.753 -181.29 -93.1464 -183.627 -107.281C-185.497 -118.589 -195.548 -120.771 -200.339 -120.449M-160.74 -153.355C-163.096 -185.238 -149.92 -246.692 -78.3697 -237.434C-82.1655 -253.714 -78.4037 -291.427 -32.99 -312.042C23.7771 -337.811 53.8053 -285.745 45.1826 -269.688C53.1537 -274.428 74.0757 -278.539 93.9953 -257.065C113.915 -235.592 104.277 -213.728 96.9681 -205.48C104.628 -210.118 126.139 -215 150.91 -197.428C175.681 -179.855 165.048 -144.176 156.636 -128.532C161.423 -134.785 177.712 -144.598 204.566 -133.83C231.42 -123.062 223.697 -93.1736 216.479 -79.5756M78.9164 -114.341C80.8122 -109.166 88.8047 -100.146 105.608 -105.464C126.613 -112.113 127.496 -153.784 101.11 -161.725C74.7231 -169.666 41.1744 -156.441 38.6155 -115.465C36.0566 -74.4886 68.741 -49.153 145.402 -53.2745C222.062 -57.3961 239.95 -72.959 276.823 -60.7843C313.695 -48.6096 295.073 4.64405 257.746 -4.48552C220.419 -13.6151 238.184 -49.2083 257.48 -41.4361M-408.367 -84.6157C-407.358 -78.4813 -404.609 -69.2698 -399.586 -60.6785M-399.586 -60.6785C-393.73 -50.6629 -384.783 -41.4902 -371.902 -39.0184C-347.97 -34.4263 -330.79 -42.442 -325.191 -47.0239C-319.231 -41.1416 -303.14 -29.8377 -286.454 -31.681C-265.596 -33.9851 -258.566 -48.8698 -261.942 -62.7584C-265.318 -76.647 -284.721 -86.2357 -295.964 -79.6283C-291.416 -91.4843 -288.298 -118.957 -312.208 -133.998C-342.096 -152.8 -376.129 -126.65 -377.121 -109.27C-382.411 -114.628 -397.589 -124.181 -415.976 -119.532C-434.363 -114.883 -437.586 -97.1569 -436.899 -88.8748C-444.52 -94.3677 -462.891 -101.996 -475.409 -88.5682C-491.056 -71.7829 -472.412 -46.3734 -441.553 -57.7011C-434.013 -49.4584 -415.064 -38.514 -399.586 -60.6785ZM-350.621 -102.128C-343.258 -104.216 -333.168 -96.6544 -334.843 -85.4319C-336.937 -71.4038 -359.4 -62.6468 -369.963 -82.0698M-239.82 -252.195C-227.321 -261.447 -210.284 -250.455 -208.537 -241.3C-205.551 -225.644 -217.602 -204.408 -249.949 -214.128C-282.296 -223.849 -365.838 -263.002 -407.587 -251.445C-449.336 -239.889 -460.174 -213.971 -460.991 -185.15M-445.765 -263.815C-440.292 -275.598 -416.833 -295.429 -366.775 -280.485C-304.202 -261.806 -291.987 -251.533 -254.054 -271.664M-380.606 -187.827C-385.237 -180.661 -399.416 -167.954 -419.081 -174.447C-443.663 -182.564 -438.994 -222.78 -395.823 -223.007C-361.286 -223.188 -304.172 -199.097 -279.932 -187.029M-137.25 -63.4475C-124.505 -57.9453 -89.6265 -49.0651 -52.0698 -57.5623C-14.513 -66.0595 -0.673333 -109.915 1.55192 -130.781M-235.558 -9.63691C-247.059 1.83944 -283.77 21.3225 -338.612 7.44376C-407.165 -9.90461 -435.852 -15.9656 -466.806 -3.68727C-497.761 8.59107 -508.153 51.5501 -488.89 75.7323C-461.549 110.054 -405.813 88.1335 -407.593 46.5097C-409.373 4.88597 -468.872 20.0188 -457.328 47.9798M-185.378 -40.3914C-175.706 -29.7403 -144.726 -8.03916 -98.1747 -6.44422C-39.986 -4.45055 -16.9029 -45.8786 15.1462 -37.1413C47.1952 -28.404 39.8288 23.9233 -3.97051 10.486M-198.331 -202.421L-197.026 -202.226L-197.351 -200.051L-198.656 -200.246L-198.331 -202.421ZM-103.093 -292.266L-101.788 -292.072L-102.113 -289.897L-103.418 -290.091L-103.093 -292.266ZM-221.708 -45.8146L-220.403 -45.6198L-220.728 -43.4447L-222.033 -43.6395L-221.708 -45.8146ZM-456.227 -143.081L-454.922 -142.886L-455.247 -140.711L-456.552 -140.906L-456.227 -143.081ZM-431.551 -308.388L-430.246 -308.193L-430.571 -306.018L-431.876 -306.213L-431.551 -308.388ZM-404.669 -428.894L-403.364 -428.699L-403.688 -426.524L-404.993 -426.719L-404.669 -428.894ZM-471.49 137.921L-470.185 138.116L-470.51 140.291L-471.815 140.096L-471.49 137.921ZM-360.202 47.8026L-358.897 47.9974L-359.221 50.1726L-360.526 49.9778L-360.202 47.8026ZM-326.435 -178.406L-325.13 -178.211L-325.455 -176.036L-326.76 -176.231L-326.435 -178.406ZM154.164 -240.079L155.469 -239.884L155.144 -237.709L153.839 -237.904L154.164 -240.079ZM-86.4575 -356.045L-85.1524 -355.85L-85.4771 -353.675L-86.7822 -353.87L-86.4575 -356.045ZM277.785 -114.895L279.09 -114.701L278.765 -112.525L277.46 -112.72L277.785 -114.895Z" stroke="#85A1FF" stroke-width="8.79674" stroke-linecap="round" stroke-linejoin="round"/>
<path d="M-297.854 -690.204C-296.893 -681.587 -293.738 -668.562 -287.387 -656.247M-287.387 -656.247C-279.984 -641.89 -268.237 -628.496 -250.56 -624.17C-217.721 -616.134 -193.34 -626.129 -185.255 -632.13C-177.413 -623.526 -155.916 -606.673 -132.659 -608.1C-103.588 -609.884 -92.7867 -630.145 -96.4772 -649.729C-100.168 -669.313 -126.376 -684.002 -142.429 -675.564C-135.283 -691.774 -129.007 -729.843 -161.074 -752.439C-201.157 -780.684 -250.185 -746.572 -252.796 -722.422C-259.747 -730.249 -280.102 -744.599 -305.915 -739.379C-331.729 -734.159 -337.457 -709.678 -337.094 -698.091C-347.265 -706.266 -372.183 -718.153 -390.486 -700.298C-413.366 -677.979 -389.335 -641.295 -345.761 -654.969C-335.898 -642.967 -310.415 -626.42 -287.387 -656.247ZM-216.578 -710.656C-206.225 -713.061 -192.779 -701.835 -195.899 -686.311C-199.799 -666.907 -231.553 -656.241 -244.81 -684.029M209.519 -437.24C203.02 -432.429 212.577 -418.995 223.186 -424.526C233.796 -430.058 236.834 -438.499 237.393 -448.199C237.952 -457.899 230.394 -472.813 212.753 -476.781C195.112 -480.748 160.609 -464.108 173.691 -417.684C186.774 -371.26 254.124 -378.55 270.7 -403.203C275.301 -410.046 281.491 -414.904 288.477 -418.02C306.66 -426.13 330.242 -422.433 345.27 -411.194C366.073 -395.637 365.17 -350.857 334.556 -339.417C303.942 -327.977 290.548 -354.436 296.911 -367.272C302.002 -377.541 312.252 -376.693 316.74 -374.985M288.477 -418.02C300.041 -447.826 305.387 -510.448 234.252 -522.489C242.636 -536.951 250.052 -574.118 212.639 -607.097C165.872 -648.321 121.947 -607.294 125.505 -589.419C119.265 -596.28 100.456 -606.322 75.1338 -591.602C49.8115 -576.882 52.6441 -553.156 57.2257 -543.133C51.2546 -549.806 32.1066 -560.758 3.28359 -551.185C-25.5395 -541.613 -25.7899 -504.384 -22.3122 -486.966C-25.065 -494.344 -37.7776 -508.486 -66.6058 -506.03C-95.4339 -503.573 -96.7763 -472.733 -93.844 -457.62M47.8744 -450.696C44.55 -446.3 34.2718 -440.008 19.754 -450.002C1.60687 -462.494 12.931 -502.606 40.4865 -502.495C68.042 -502.385 96.2658 -479.938 86.7467 -440.001C77.2275 -400.064 38.569 -385.379 -33.5461 -411.708C-105.661 -438.038 -118.224 -458.146 -157.045 -457.27C-195.865 -456.395 -193.607 -400.024 -155.241 -397.855C-116.875 -395.686 -123.471 -434.915 -144.196 -433.117M439.408 -204.136C436.653 -198.564 431.333 -190.557 424.02 -183.807M424.02 -183.807C415.494 -175.938 404.259 -169.778 391.217 -171.176C366.988 -173.773 352.897 -186.457 348.881 -192.474C341.463 -188.588 322.772 -182.477 307.351 -189.113C288.075 -197.407 285.699 -213.696 292.983 -225.994C300.268 -238.291 321.626 -241.795 330.449 -232.192C329.562 -244.86 334.603 -272.044 361.863 -279.448C395.939 -288.702 420.852 -253.753 416.725 -236.841C423.349 -240.42 440.655 -245.124 456.883 -235.308C473.111 -225.492 471.017 -207.598 467.941 -199.877C476.834 -202.905 496.631 -204.836 504.682 -188.338C514.745 -167.715 489.493 -148.858 463.288 -168.704C453.669 -163.022 432.35 -158.089 424.02 -183.807ZM389.295 -237.749C382.862 -241.896 371.004 -237.611 369.329 -226.389C367.235 -212.36 386.16 -197.425 401.935 -212.917M-390.526 -600.771C-399.139 -613.718 -418.897 -609.166 -423.649 -601.148C-431.775 -587.437 -427.653 -563.371 -393.927 -561.527C-360.202 -559.684 -268.327 -568.136 -232.985 -543.087C-197.643 -518.038 -196.252 -489.98 -205.271 -462.595M-192.876 -541.755C-194.021 -554.696 -209.351 -581.315 -261.509 -584.261C-326.706 -587.944 -341.684 -582.431 -370.526 -614.248M-279.969 -492.413C-278.047 -484.101 -269.027 -467.334 -248.326 -466.762C-222.449 -466.047 -213.181 -505.459 -253.709 -520.334C-286.131 -532.234 -348.032 -528.974 -374.93 -525.856M239.754 -338.893C225.958 -337.352 190.007 -339.045 156.569 -358.14C123.131 -377.235 122.702 -423.22 126.667 -443.826M252.237 -182.893C259.884 -168.558 289.306 -139.203 345.81 -136.461C416.441 -133.033 445.647 -130.452 471.666 -109.669C497.686 -88.8864 495.08 -44.765 469.594 -27.2626C433.422 -2.4218 386.517 -39.6637 400.375 -78.9531C414.233 -118.243 466.719 -86.3935 447.512 -63.0226M261.916 -263.331C248.169 -259.087 210.456 -256.18 169.577 -278.505C118.477 -306.412 119.699 -353.818 87.6657 -362.613C55.6325 -371.408 35.3347 -322.622 79.8743 -311.89M338.759 -453.969L337.454 -454.164L337.129 -451.989L338.434 -451.794L338.759 -453.969ZM273.911 -567.711L272.606 -567.906L272.281 -565.731L273.586 -565.536L273.911 -567.711ZM315.382 -297.365L314.077 -297.56L313.752 -295.385L315.057 -295.19L315.382 -297.365ZM502.256 -246.076L500.951 -246.271L500.627 -244.096L501.932 -243.901L502.256 -246.076ZM-191.106 -588.505L-192.4 -588.765L-192.833 -586.609L-191.54 -586.349L-191.106 -588.505ZM-102.118 -704.25L-103.412 -704.51L-103.845 -702.354L-102.552 -702.094L-102.118 -704.25ZM434.791 27.1337L433.486 26.9389L433.161 29.114L434.466 29.3088L434.791 27.1337ZM354.672 -91.5565L353.367 -91.7514L353.042 -89.5762L354.347 -89.3814L354.672 -91.5565ZM-334.12 -501.951L-335.414 -502.211L-335.847 -500.055L-334.553 -499.795L-334.12 -501.951ZM12.6275 -592.927L11.3224 -593.122L10.9978 -590.947L12.3028 -590.752L12.6275 -592.927ZM276.626 -633.567L275.321 -633.762L274.996 -631.587L276.301 -631.392L276.626 -633.567ZM-142.163 -509.303L-143.468 -509.498L-143.792 -507.323L-142.487 -507.128L-142.163 -509.303Z" stroke="#85A1FF" stroke-width="8.79674" stroke-linecap="round" stroke-linejoin="round"/>
<path d="M104.382 89.339C105.343 97.956 108.498 110.98 114.849 123.296M114.849 123.296C122.252 137.653 133.999 151.047 151.675 155.372C184.515 163.408 208.895 153.414 216.981 147.412C224.822 156.017 246.319 172.869 269.576 171.442C298.647 169.659 309.449 149.398 305.758 129.814C302.068 110.229 275.859 95.5402 259.806 103.978C266.953 87.7684 273.228 49.6996 241.161 27.1037C201.078 -1.14122 152.051 32.9708 149.44 57.1209C142.489 49.2935 122.135 34.9436 96.3209 40.1636C70.5073 45.3836 64.7794 69.8642 65.1421 81.452C54.9714 73.2765 30.0536 61.3892 11.7497 79.2447C-11.1301 101.564 12.9014 138.247 56.4752 124.573C66.3382 136.575 91.8211 153.122 114.849 123.296ZM185.657 68.8866C196.011 66.4812 209.456 77.7076 206.336 93.2313C202.436 112.636 170.683 123.302 157.426 95.5138M718.975 404.557C714.486 402.85 704.236 402.002 699.146 412.271C692.782 425.107 706.177 451.565 736.79 440.125C767.404 428.685 768.307 383.905 747.505 368.348C732.476 357.109 708.895 353.413 690.711 361.522M611.754 342.303C605.254 347.114 614.811 360.547 625.421 355.016C636.03 349.484 639.069 341.044 639.628 331.343C640.186 321.643 632.629 306.729 614.988 302.762C597.347 298.794 562.844 315.435 575.926 361.858C589.008 408.282 656.358 400.992 672.935 376.339C677.536 369.496 683.725 364.638 690.711 361.522M690.711 361.522C702.276 331.716 707.621 269.095 636.486 257.053C644.871 242.592 652.287 205.424 614.873 172.445C568.106 131.221 524.182 172.248 527.74 190.123C521.5 183.262 502.691 173.221 477.369 187.941C452.047 202.661 454.879 226.386 459.461 236.409C453.49 229.737 434.342 218.785 405.519 228.357C376.696 237.93 376.445 275.158 379.923 292.577C377.17 285.198 364.457 271.056 335.629 273.513C306.801 275.969 305.459 306.81 308.391 321.923M450.109 328.847C446.785 333.242 436.507 339.535 421.989 329.541C403.842 317.048 415.166 276.936 442.721 277.047C470.277 277.158 498.501 299.604 488.982 339.541C479.462 379.478 440.804 394.164 368.689 367.834C296.574 341.504 284.011 321.396 245.19 322.272C206.37 323.148 208.628 379.518 246.994 381.687C285.36 383.857 278.764 344.627 258.039 346.425M955.637 376.887C952.881 382.46 947.561 390.467 940.248 397.217M940.248 397.217C931.722 405.085 920.487 411.245 907.445 409.848C883.216 407.251 869.125 394.567 865.109 388.55C857.691 392.435 839 398.547 823.579 391.911C804.304 383.616 801.927 367.327 809.212 355.03C816.496 342.733 837.854 339.228 846.677 348.831C845.79 336.164 850.831 308.979 878.092 301.576C912.167 292.322 937.08 327.271 932.953 344.182C939.577 340.603 956.883 335.899 973.111 345.715C989.339 355.531 987.245 373.426 984.169 381.146C993.062 378.118 1012.86 376.187 1020.91 392.686C1030.97 413.309 1005.72 432.166 979.516 412.32C969.897 418.001 948.578 422.935 940.248 397.217ZM905.523 343.275C899.09 339.128 887.232 343.412 885.557 354.635C883.463 368.663 902.388 383.598 918.163 368.107M11.7105 178.771C3.09697 165.824 -16.6608 170.377 -21.4127 178.395C-29.5386 192.105 -25.4164 216.172 8.30906 218.015C42.0346 219.859 133.908 211.407 169.25 236.456C204.593 261.504 205.983 289.562 196.964 316.947M209.359 237.788C208.214 224.846 192.885 198.227 140.727 195.281C75.5299 191.598 60.5523 197.112 31.7106 165.294M122.266 287.129C124.189 295.441 133.208 312.209 153.91 312.78C179.787 313.495 189.054 274.083 148.527 259.208C116.105 247.308 54.2039 250.569 27.3061 253.687M641.989 440.649C628.193 442.19 592.242 440.497 558.804 421.402C525.366 402.307 524.937 356.322 528.902 335.716M637.323 502.98C623.977 508.353 586.636 514.386 544.042 495.537C490.8 471.976 488.075 424.632 455.422 418.531C422.768 412.43 406.597 462.735 451.875 469.726M740.993 325.573L739.688 325.378L739.364 327.553L740.669 327.748L740.993 325.573ZM676.145 211.831L674.84 211.637L674.516 213.812L675.821 214.006L676.145 211.831ZM831.61 283.658L830.305 283.463L829.981 285.638L831.286 285.833L831.61 283.658ZM1018.48 334.947L1017.18 334.753L1016.85 336.928L1018.16 337.122L1018.48 334.947ZM211.129 191.037L209.835 190.777L209.402 192.933L210.696 193.193L211.129 191.037ZM300.117 75.2924L298.823 75.0324L298.39 77.1885L299.684 77.4485L300.117 75.2924ZM68.1163 277.591L66.8225 277.331L66.3892 279.487L67.6829 279.747L68.1163 277.591ZM414.862 186.615L413.557 186.42L413.233 188.595L414.538 188.79L414.862 186.615ZM678.86 145.975L677.555 145.78L677.231 147.955L678.536 148.15L678.86 145.975ZM260.073 270.239L258.768 270.044L258.443 272.219L259.748 272.414L260.073 270.239Z" stroke="#85A1FF" stroke-width="8.79674" stroke-linecap="round" stroke-linejoin="round"/>
<path d="M215.004 511.543C215.965 520.16 219.12 533.184 225.471 545.499M225.471 545.499C232.874 559.857 244.62 573.25 262.297 577.576C295.137 585.612 319.517 575.618 327.603 569.616C335.444 578.221 356.941 595.073 380.198 593.646C409.269 591.863 420.071 571.602 416.38 552.018C412.69 532.433 386.481 517.744 370.428 526.182C377.575 509.972 383.85 471.904 351.783 449.308C311.7 421.063 262.673 455.175 260.062 479.325C253.111 471.497 232.756 457.148 206.943 462.368C181.129 467.588 175.401 492.068 175.764 503.656C165.593 495.48 140.675 483.593 122.372 501.449C99.4916 523.768 123.523 560.451 167.097 546.777C176.96 558.779 202.443 575.326 225.471 545.499ZM296.279 491.091C306.633 488.685 320.078 499.912 316.958 515.435C313.058 534.84 281.305 545.506 268.047 517.718M122.332 600.975C113.719 588.028 93.961 592.581 89.2091 600.599C81.0832 614.309 85.2053 638.376 118.931 640.219C152.656 642.063 244.53 633.611 279.872 658.659C315.215 683.708 316.605 711.766 307.586 739.151M319.981 659.992C318.836 647.05 303.507 620.431 251.349 617.485C186.152 613.802 171.174 619.316 142.332 587.498M232.888 709.333C234.811 717.645 243.83 734.412 264.532 734.984C290.409 735.699 299.676 696.287 259.149 681.412C226.727 669.512 164.826 672.773 137.928 675.891M321.751 613.241L320.457 612.981L320.024 615.137L321.318 615.397L321.751 613.241ZM410.739 497.496L409.446 497.236L409.012 499.392L410.306 499.652L410.739 497.496ZM178.738 699.795L177.444 699.535L177.011 701.691L178.305 701.951L178.738 699.795Z" stroke="#85A1FF" stroke-width="8.79674" stroke-linecap="round" stroke-linejoin="round"/>
<path d="M284.179 239.657C274.967 241.654 273.244 253.786 276.752 258.229C282.75 265.828 297.284 268.811 305.673 250.222C314.062 231.634 329.28 178.026 351.169 163.642C373.058 149.258 389.257 154.659 402.809 165.775M334.556 130.044L334.127 130.715L335.254 131.435L335.683 130.763L334.556 130.044ZM352.452 229.669L352.022 230.341L353.15 231.06L353.579 230.389L352.452 229.669Z" stroke="#85A1FF" stroke-width="8.79674" stroke-linecap="round" stroke-linejoin="round"/>
<path d="M423.14 51.2634C408.322 41.1293 389.142 54.5452 387.522 65.1816C384.752 83.3704 399.57 107.349 436.467 94.7404C473.363 82.132 568.048 33.362 616.708 44.8931C665.368 56.4241 678.988 85.8554 681.174 119.068M660.216 28.9772C653.395 15.6201 625.477 -6.24446 568.375 13.1531C496.997 37.4001 483.349 49.7776 438.721 28.1907M588.327 119.447C593.978 127.513 610.882 141.561 633.288 133.222C661.295 122.799 654.175 76.6068 604.363 78.2074C564.514 79.4878 499.666 109.742 472.224 124.709M641.897 -21.8287L640.4 -21.5477L640.869 -19.0525L642.366 -19.3335L641.897 -21.8287ZM526.242 132.651L524.744 132.932L525.213 135.427L526.71 135.146L526.242 132.651Z" stroke="#85A1FF" stroke-width="8.79674" stroke-linecap="round" stroke-linejoin="round"/>
<path d="M95.6123 398.443C92.8565 404.015 87.5369 412.022 80.2236 418.772M80.2236 418.772C71.6979 426.641 60.4625 432.801 47.4206 431.403C23.1916 428.806 9.10108 416.122 5.08448 410.105C-2.33347 413.991 -21.0246 420.102 -36.4451 413.466C-55.7208 405.171 -58.0973 388.883 -50.8127 376.585C-43.528 364.288 -22.1705 360.784 -13.347 370.387C-14.234 357.719 -9.19304 330.535 18.0673 323.131C52.1427 313.877 77.0557 348.826 72.9286 365.738C79.5529 362.159 96.8586 357.455 113.087 367.271C129.315 377.086 127.22 394.981 124.145 402.702C133.037 399.674 152.835 397.743 160.886 414.241C170.949 434.864 145.697 453.721 119.491 433.875C109.873 439.557 88.5538 444.49 80.2236 418.772ZM45.4985 364.83C39.0659 360.683 27.2077 364.968 25.5325 376.19C23.4384 390.218 42.3641 405.153 58.1388 389.662M-28.414 305.213L-29.719 305.019L-30.0437 307.194L-28.7387 307.388L-28.414 305.213ZM158.46 356.503L157.155 356.308L156.831 358.483L158.136 358.678L158.46 356.503Z" stroke="#85A1FF" stroke-width="8.79674" stroke-linecap="round" stroke-linejoin="round"/>
</g>
<g clip-path="url(#clip1_1_403)">
<path d="M993.391 -167.281C989.561 -159.503 982.17 -148.324 972.014 -138.898M972.014 -138.898C960.174 -127.909 944.577 -119.3 926.482 -121.236C892.865 -124.831 873.328 -142.511 867.761 -150.902C857.464 -145.472 831.521 -136.923 810.131 -146.164C783.394 -157.715 780.116 -180.44 790.238 -197.606C800.361 -214.773 830.001 -219.688 842.233 -206.299C841.017 -223.973 848.044 -261.91 885.879 -272.272C933.172 -285.224 967.7 -236.489 961.954 -212.887C971.15 -217.889 995.169 -224.473 1017.68 -210.796C1040.18 -197.119 1037.25 -172.148 1032.98 -161.372C1045.32 -165.607 1072.79 -168.325 1083.95 -145.314C1097.89 -116.551 1062.82 -90.2104 1026.48 -117.87C1013.13 -109.932 983.543 -103.023 972.014 -138.898ZM923.893 -214.122C914.972 -219.9 898.513 -213.908 896.175 -198.247C893.253 -178.672 919.496 -157.855 941.403 -179.489M1139.12 33.2453C1143.93 39.7447 1130.87 49.8018 1122.33 41.413C1113.8 33.0241 1113.36 24.064 1115.66 14.6235C1117.96 5.183 1129.54 -6.87393 1147.57 -5.5166C1165.6 -4.15927 1193.74 21.832 1167.67 62.4115C1141.6 102.991 1079.32 76.35 1070.66 47.9308C1068.26 40.0426 1063.76 33.5884 1057.99 28.5683C1042.97 15.5023 1019.33 12.1504 1001.68 18.5106C977.24 27.3144 965.026 70.4069 990.965 90.2884C1016.9 110.17 1037.44 88.7764 1035.1 74.6415C1033.23 63.3336 1023.18 61.1514 1018.39 61.4738M1057.99 28.5683C1055.63 -3.31551 1068.81 -64.7688 1140.36 -55.5114C1136.56 -71.7911 1140.33 -109.504 1185.74 -130.119C1242.51 -155.888 1272.54 -103.822 1263.91 -87.7654C1271.88 -92.505 1292.81 -96.6158 1312.73 -75.1424C1332.64 -53.6691 1323.01 -31.8049 1315.7 -23.557C1323.36 -28.1949 1344.87 -33.0775 1369.64 -15.505C1394.41 2.06764 1383.78 37.7472 1375.37 53.3904C1380.15 47.1379 1396.44 37.3249 1423.3 48.0931C1450.15 58.8613 1442.43 88.7493 1435.21 102.347M1297.65 67.5822C1299.54 72.757 1307.53 81.777 1324.34 76.4584C1345.34 69.8101 1346.23 28.1393 1319.84 20.1981C1293.45 12.2569 1259.9 25.4821 1257.35 66.4582C1254.79 107.434 1287.47 132.77 1364.13 128.648C1440.79 124.527 1458.68 108.964 1495.55 121.139C1532.43 133.313 1513.8 186.567 1476.48 177.437C1439.15 168.308 1456.91 132.714 1476.21 140.487M810.363 97.3072C811.371 103.442 814.121 112.653 819.144 121.244M819.144 121.244C825 131.26 833.947 140.433 846.828 142.904C870.76 147.497 887.94 139.481 893.539 134.899C899.499 140.781 915.59 152.085 932.276 150.242C953.134 147.938 960.164 133.053 956.788 119.164C953.412 105.276 934.009 95.6871 922.766 102.295C927.314 90.4386 930.432 62.9662 906.522 47.9245C876.634 29.1224 842.601 55.273 841.609 72.6525C836.319 67.295 821.141 57.7422 802.754 62.391C784.367 67.0397 781.144 84.766 781.831 93.048C774.21 87.5552 755.839 79.9264 743.321 93.3547C727.674 110.14 746.318 135.549 777.177 124.222C784.717 132.464 803.666 143.409 819.144 121.244ZM868.109 79.795C875.472 77.7073 885.562 85.2684 883.887 96.4909C881.793 110.519 859.33 119.276 848.767 99.8531M978.91 -70.2725C991.409 -79.5245 1008.45 -68.5319 1010.19 -59.377C1013.18 -43.7217 1001.13 -22.485 968.781 -32.2053C936.434 -41.9257 852.892 -81.0789 811.143 -69.5224C769.394 -57.966 758.556 -32.0484 757.738 -3.22761M772.965 -81.8919C778.438 -93.6751 801.897 -113.506 851.955 -98.5623C914.528 -79.883 926.743 -69.6102 964.676 -89.741M838.124 -5.90371C833.493 1.26154 819.314 13.9688 799.649 7.47559C775.067 -0.640879 779.736 -40.8573 822.907 -41.0837C857.444 -41.2649 914.558 -17.1744 938.798 -5.10654M1081.48 118.475C1094.22 123.978 1129.1 132.858 1166.66 124.361C1204.22 115.863 1218.06 72.0077 1220.28 51.142M983.172 172.286C971.671 183.762 934.96 203.245 880.118 189.367C811.565 172.018 782.878 165.957 751.924 178.236C720.969 190.514 710.577 233.473 729.84 257.655C757.181 291.977 812.917 270.056 811.137 228.433C809.357 186.809 749.858 201.942 761.402 229.903M1033.35 141.531C1043.02 152.183 1074 173.884 1120.56 175.479C1178.74 177.472 1201.83 136.044 1233.88 144.782C1265.93 153.519 1258.56 205.846 1214.76 192.409M1020.4 -20.4979L1021.7 -20.303L1021.38 -18.128L1020.07 -18.3228L1020.4 -20.4979ZM1115.64 -110.344L1116.94 -110.149L1116.62 -107.974L1115.31 -108.169L1115.64 -110.344ZM997.021 136.108L998.327 136.303L998.002 138.478L996.697 138.283L997.021 136.108ZM762.503 38.8417L763.808 39.0365L763.483 41.2115L762.178 41.0167L762.503 38.8417ZM787.179 -126.465L788.484 -126.27L788.159 -124.095L786.854 -124.29L787.179 -126.465ZM814.061 -246.971L815.366 -246.776L815.042 -244.601L813.737 -244.796L814.061 -246.971ZM747.24 319.844L748.545 320.038L748.22 322.214L746.915 322.019L747.24 319.844ZM858.528 229.725L859.833 229.92L859.509 232.095L858.203 231.901L858.528 229.725ZM892.295 3.51667L893.6 3.71148L893.275 5.88655L891.97 5.69174L892.295 3.51667ZM1372.89 -58.1561L1374.2 -57.9613L1373.87 -55.7863L1372.57 -55.9811L1372.89 -58.1561ZM1132.27 -174.122L1133.58 -173.927L1133.25 -171.752L1131.95 -171.947L1132.27 -174.122ZM1496.51 67.0275L1497.82 67.2223L1497.49 69.3974L1496.19 69.2026L1496.51 67.0275Z" stroke="#85A1FF" stroke-width="8.79674" stroke-linecap="round" stroke-linejoin="round"/>
<path d="M920.876 -508.281C921.837 -499.664 924.992 -486.64 931.343 -474.324M931.343 -474.324C938.746 -459.967 950.493 -446.573 968.169 -442.247C1001.01 -434.211 1025.39 -444.206 1033.48 -450.207C1041.32 -441.603 1062.81 -424.75 1086.07 -426.177C1115.14 -427.961 1125.94 -448.222 1122.25 -467.806C1118.56 -487.39 1092.35 -502.079 1076.3 -493.641C1083.45 -509.851 1089.72 -547.92 1057.66 -570.516C1017.57 -598.761 968.545 -564.649 965.934 -540.499C958.983 -548.326 938.628 -562.676 912.815 -557.456C887.001 -552.236 881.273 -527.755 881.636 -516.168C871.465 -524.343 846.547 -536.23 828.243 -518.375C805.363 -496.056 829.395 -459.373 872.969 -473.046C882.832 -461.044 908.315 -444.497 931.343 -474.324ZM1002.15 -528.733C1012.51 -531.138 1025.95 -519.912 1022.83 -504.388C1018.93 -484.984 987.177 -474.318 973.92 -502.106M1428.25 -255.317C1421.75 -250.506 1431.31 -237.072 1441.92 -242.604C1452.53 -248.135 1455.56 -256.576 1456.12 -266.276C1456.68 -275.976 1449.12 -290.89 1431.48 -294.858C1413.84 -298.825 1379.34 -282.185 1392.42 -235.761C1405.5 -189.337 1472.85 -196.627 1489.43 -221.28C1494.03 -228.123 1500.22 -232.982 1507.21 -236.097C1525.39 -244.207 1548.97 -240.511 1564 -229.272C1584.8 -213.714 1583.9 -168.934 1553.29 -157.494C1522.67 -146.054 1509.28 -172.513 1515.64 -185.349C1520.73 -195.618 1530.98 -194.77 1535.47 -193.062M1507.21 -236.097C1518.77 -265.903 1524.12 -328.525 1452.98 -340.566C1461.37 -355.028 1468.78 -392.195 1431.37 -425.174C1384.6 -466.398 1340.68 -425.371 1344.23 -407.496C1338 -414.357 1319.19 -424.399 1293.86 -409.679C1268.54 -394.959 1271.37 -371.233 1275.96 -361.21C1269.98 -367.883 1250.84 -378.835 1222.01 -369.262C1193.19 -359.69 1192.94 -322.461 1196.42 -305.043C1193.66 -312.421 1180.95 -326.563 1152.12 -324.107C1123.3 -321.65 1121.95 -290.81 1124.89 -275.697M1266.6 -268.773C1263.28 -264.377 1253 -258.085 1238.48 -268.079C1220.34 -280.571 1231.66 -320.684 1259.22 -320.573C1286.77 -320.462 1315 -298.016 1305.48 -258.078C1295.96 -218.141 1257.3 -203.456 1185.18 -229.785C1113.07 -256.115 1100.51 -276.223 1061.68 -275.347C1022.86 -274.472 1025.12 -218.101 1063.49 -215.932C1101.85 -213.763 1095.26 -252.992 1074.53 -251.194M1658.14 -22.2135C1655.38 -16.641 1650.06 -8.6339 1642.75 -1.88412M1642.75 -1.88412C1634.22 5.98466 1622.99 12.1447 1609.95 10.7468C1585.72 8.14989 1571.63 -4.53368 1567.61 -10.5508C1560.19 -6.66545 1541.5 -0.553686 1526.08 -7.18964C1506.81 -15.4846 1504.43 -31.7734 1511.71 -44.0707C1519 -56.368 1540.36 -59.8723 1549.18 -50.2694C1548.29 -62.9367 1553.33 -90.1213 1580.59 -97.5246C1614.67 -106.779 1639.58 -71.8298 1635.45 -54.9183C1642.08 -58.4973 1659.38 -63.2012 1675.61 -53.3854C1691.84 -43.5696 1689.75 -25.6748 1686.67 -17.9543C1695.56 -20.9823 1715.36 -22.9134 1723.41 -6.4149C1733.48 14.2082 1708.22 33.0652 1682.02 13.2193C1672.4 18.9008 1651.08 23.8342 1642.75 -1.88412ZM1608.02 -55.8261C1601.59 -59.9731 1589.73 -55.6883 1588.06 -44.4658C1585.96 -30.4376 1604.89 -15.5025 1620.66 -30.994M828.204 -418.848C819.591 -431.796 799.833 -427.243 795.081 -419.225C786.955 -405.515 791.077 -381.448 824.803 -379.604C858.528 -377.761 950.402 -386.213 985.745 -361.164C1021.09 -336.115 1022.48 -308.057 1013.46 -280.672M1025.85 -359.832C1024.71 -372.773 1009.38 -399.392 957.221 -402.339C892.024 -406.021 877.046 -400.508 848.204 -432.325M938.76 -310.491C940.683 -302.178 949.703 -285.411 970.404 -284.839C996.281 -284.125 1005.55 -323.536 965.021 -338.411C932.599 -350.312 870.698 -347.051 843.8 -343.933M1458.48 -156.97C1444.69 -155.43 1408.74 -157.122 1375.3 -176.217C1341.86 -195.312 1341.43 -241.297 1345.4 -261.903M1470.97 -0.969886C1478.61 13.3648 1508.04 42.7196 1564.54 45.4619C1635.17 48.8897 1664.38 51.4706 1690.4 72.2536C1716.42 93.0365 1713.81 137.158 1688.32 154.66C1652.15 179.501 1605.25 142.259 1619.1 102.97C1632.96 63.6803 1685.45 95.5293 1666.24 118.9M1480.65 -81.4081C1466.9 -77.1639 1429.19 -74.257 1388.31 -96.5823C1337.21 -124.489 1338.43 -171.895 1306.4 -180.69C1274.36 -189.485 1254.06 -140.699 1298.6 -129.967M1557.49 -272.046L1556.18 -272.241L1555.86 -270.066L1557.16 -269.871L1557.49 -272.046ZM1492.64 -385.788L1491.34 -385.983L1491.01 -383.808L1492.32 -383.613L1492.64 -385.788ZM1534.11 -115.443L1532.81 -115.637L1532.48 -113.462L1533.79 -113.268L1534.11 -115.443ZM1720.99 -64.1534L1719.68 -64.3482L1719.36 -62.1731L1720.66 -61.9783L1720.99 -64.1534ZM1027.62 -406.582L1026.33 -406.842L1025.9 -404.686L1027.19 -404.426L1027.62 -406.582ZM1116.61 -522.327L1115.32 -522.587L1114.88 -520.431L1116.18 -520.171L1116.61 -522.327ZM1653.52 209.057L1652.22 208.862L1651.89 211.037L1653.2 211.232L1653.52 209.057ZM1573.4 90.3663L1572.1 90.1715L1571.77 92.3466L1573.08 92.5414L1573.4 90.3663ZM884.61 -320.028L883.316 -320.289L882.883 -318.132L884.177 -317.872L884.61 -320.028ZM1231.36 -411.005L1230.05 -411.199L1229.73 -409.024L1231.03 -408.829L1231.36 -411.005ZM1495.36 -451.644L1494.05 -451.839L1493.73 -449.664L1495.03 -449.469L1495.36 -451.644ZM1076.57 -327.38L1075.26 -327.575L1074.94 -325.4L1076.24 -325.205L1076.57 -327.38Z" stroke="#85A1FF" stroke-width="8.79674" stroke-linecap="round" stroke-linejoin="round"/>
<path d="M104.382 89.3387C105.343 97.9558 108.498 110.98 114.849 123.295M114.849 123.295C122.252 137.652 133.998 151.046 151.675 155.372C184.515 163.408 208.895 153.414 216.98 147.412C224.822 156.017 246.319 172.869 269.576 171.442C298.647 169.658 309.448 149.398 305.758 129.813C302.067 110.229 275.858 95.5399 259.806 103.978C266.952 87.7681 273.228 49.6993 241.161 27.1034C201.078 -1.14146 152.051 32.9706 149.44 57.1207C142.489 49.2932 122.134 34.9433 96.3207 40.1633C70.507 45.3833 64.7791 69.864 65.1419 81.4518C54.9711 73.2763 30.0534 61.389 11.7495 79.2445C-11.1304 101.564 12.9012 138.247 56.4749 124.573C66.338 136.575 91.8209 153.122 114.849 123.295ZM185.657 68.8863C196.011 66.4809 209.456 77.7074 206.336 93.2311C202.436 112.636 170.683 123.302 157.425 95.5136M718.974 404.557C714.486 402.85 704.236 402.001 699.145 412.27C692.782 425.106 706.176 451.565 736.79 440.125C767.404 428.685 768.307 383.905 747.504 368.348C732.476 357.109 708.894 353.413 690.711 361.522M611.753 342.302C605.254 347.113 614.811 360.547 625.42 355.016C636.03 349.484 639.069 341.043 639.627 331.343C640.186 321.643 632.628 306.729 614.988 302.761C597.347 298.794 562.844 315.434 575.926 361.858C589.008 408.282 656.358 400.992 672.935 376.339C677.536 369.496 683.725 364.638 690.711 361.522M690.711 361.522C702.276 331.716 707.621 269.094 636.486 257.053C644.871 242.591 652.286 205.424 614.873 172.445C568.106 131.221 524.182 172.248 527.74 190.123C521.5 183.262 502.691 173.22 477.368 187.94C452.046 202.66 454.879 226.386 459.46 236.409C453.489 229.736 434.341 218.784 405.518 228.357C376.695 237.929 376.445 275.158 379.923 292.576C377.17 285.198 364.457 271.056 335.629 273.513C306.801 275.969 305.459 306.809 308.391 321.922M450.109 328.846C446.785 333.242 436.506 339.535 421.989 329.541C403.842 317.048 415.166 276.936 442.721 277.047C470.277 277.158 498.5 299.604 488.981 339.541C479.462 379.478 440.804 394.164 368.689 367.834C296.574 341.504 284.01 321.396 245.19 322.272C206.369 323.148 208.628 379.518 246.994 381.687C285.36 383.857 278.764 344.627 258.039 346.425M955.636 376.887C952.881 382.459 947.561 390.467 940.248 397.216M940.248 397.216C931.722 405.085 920.487 411.245 907.445 409.847C883.216 407.25 869.125 394.567 865.109 388.55C857.691 392.435 839 398.547 823.579 391.911C804.303 383.616 801.927 367.327 809.211 355.03C816.496 342.732 837.854 339.228 846.677 348.831C845.79 336.164 850.831 308.979 878.091 301.576C912.167 292.322 937.08 327.271 932.953 344.182C939.577 340.603 956.883 335.899 973.111 345.715C989.339 355.531 987.244 373.426 984.169 381.146C993.061 378.118 1012.86 376.187 1020.91 392.686C1030.97 413.309 1005.72 432.166 979.515 412.32C969.897 418.001 948.578 422.935 940.248 397.216ZM905.523 343.274C899.09 339.127 887.232 343.412 885.557 354.635C883.463 368.663 902.388 383.598 918.163 368.106M11.7103 178.771C3.09673 165.824 -16.6611 170.377 -21.4129 178.394C-29.5389 192.105 -25.4167 216.172 8.30882 218.015C42.0343 219.859 133.908 211.407 169.25 236.455C204.593 261.504 205.983 289.562 196.964 316.947M209.359 237.787C208.214 224.846 192.884 198.227 140.727 195.281C75.5297 191.598 60.552 197.112 31.7104 165.294M122.266 287.129C124.188 295.441 133.208 312.208 153.91 312.78C179.787 313.495 189.054 274.083 148.527 259.208C116.105 247.308 54.2036 250.569 27.3058 253.686M641.989 440.649C628.193 442.19 592.241 440.497 558.803 421.402C525.365 402.307 524.937 356.322 528.902 335.716M637.323 502.98C623.977 508.353 586.636 514.385 544.042 495.537C490.8 471.976 488.075 424.632 455.422 418.531C422.768 412.43 406.597 462.735 451.875 469.726M740.993 325.573L739.688 325.378L739.363 327.553L740.668 327.748L740.993 325.573ZM676.145 211.831L674.84 211.636L674.515 213.811L675.82 214.006L676.145 211.831ZM831.61 283.658L830.305 283.463L829.98 285.638L831.285 285.833L831.61 283.658ZM1018.48 334.947L1017.18 334.752L1016.85 336.927L1018.16 337.122L1018.48 334.947ZM211.129 191.037L209.835 190.777L209.402 192.933L210.695 193.193L211.129 191.037ZM300.117 75.2922L298.823 75.0322L298.39 77.1882L299.683 77.4482L300.117 75.2922ZM68.116 277.591L66.8223 277.331L66.3889 279.487L67.6827 279.747L68.116 277.591ZM414.862 186.615L413.557 186.42L413.232 188.595L414.538 188.79L414.862 186.615ZM678.86 145.975L677.555 145.78L677.23 147.955L678.536 148.15L678.86 145.975ZM260.073 270.239L258.768 270.044L258.443 272.219L259.748 272.414L260.073 270.239Z" stroke="#85A1FF" stroke-width="8.79674" stroke-linecap="round" stroke-linejoin="round"/>
<path d="M1110.53 405.482C1115.53 394.701 1104.68 383.635 1097.56 383.736C1085.38 383.907 1071.33 396.196 1083.58 418.92C1095.84 441.645 1138 498.173 1135.77 531.209C1133.54 564.245 1115.8 576.346 1094.34 581.39M1083.99 520.792C1079.33 525.362 1072 537.932 1079.89 551.657C1089.74 568.814 1119.14 559.133 1112.67 526.775C1107.49 500.888 1080.67 461.83 1067.91 445.537M1068.6 481.682L1068.25 480.735L1066.68 481.312L1067.02 482.259L1068.6 481.682Z" stroke="#85A1FF" stroke-width="8.79674" stroke-linecap="round" stroke-linejoin="round"/>
<path d="M498.674 522.458C493.421 514.633 481.509 517.504 478.672 522.403C473.82 530.781 476.406 545.39 496.778 546.334C517.15 547.278 572.592 541.658 594.034 556.7C615.475 571.743 616.428 588.793 611.092 605.488M619.138 528.869L618.356 528.718L618.103 530.031L618.885 530.182L619.138 528.869ZM533.131 582.238L532.349 582.087L532.096 583.4L532.878 583.551L533.131 582.238Z" stroke="#85A1FF" stroke-width="8.79674" stroke-linecap="round" stroke-linejoin="round"/>
<path d="M984.956 225.036C977.337 213.681 959.895 217.651 955.707 224.673C948.546 236.681 952.21 257.779 981.991 259.428C1011.77 261.078 1092.89 253.762 1124.12 275.751C1155.36 297.74 1156.61 322.333 1148.67 346.325M1159.54 276.959C1158.52 265.615 1144.95 242.27 1098.89 239.636C1041.32 236.343 1028.1 241.16 1002.6 213.245M1082.69 320.116C1084.39 327.403 1092.37 342.108 1110.65 342.63C1133.5 343.282 1141.65 308.749 1105.85 295.672C1077.21 285.209 1022.55 288.005 998.802 290.711M1161.06 235.987L1159.91 235.758L1159.53 237.647L1160.68 237.876L1161.06 235.987ZM1034.86 311.703L1033.72 311.473L1033.34 313.363L1034.48 313.592L1034.86 311.703Z" stroke="#85A1FF" stroke-width="8.79674" stroke-linecap="round" stroke-linejoin="round"/>
<path d="M423.139 51.2632C408.322 41.1291 389.142 54.545 387.522 65.1814C384.752 83.3702 399.57 107.349 436.466 94.7402C473.363 82.1318 568.048 33.3618 616.708 44.8929C665.368 56.4239 678.988 85.8552 681.174 119.068M660.216 28.977C653.395 15.6199 625.477 -6.24467 568.375 13.1529C496.997 37.3999 483.349 49.7774 438.72 28.1905M588.327 119.447C593.978 127.513 610.882 141.561 633.288 133.222C661.295 122.799 654.175 76.6066 604.363 78.2071C564.514 79.4876 499.666 109.741 472.223 124.708M641.897 -21.8289L640.4 -21.5479L640.868 -19.0527L642.365 -19.3337L641.897 -21.8289ZM526.241 132.651L524.744 132.932L525.212 135.427L526.71 135.146L526.241 132.651Z" stroke="#85A1FF" stroke-width="8.79674" stroke-linecap="round" stroke-linejoin="round"/>
<path d="M1044.63 632.59C1041.32 631.329 1033.76 630.704 1030 638.293C1025.3 647.78 1035.18 667.33 1057.77 658.871C1080.36 650.412 1081.04 617.32 1065.69 605.827C1054.6 597.524 1037.2 594.797 1023.78 600.793M965.525 586.603C960.728 590.159 967.778 600.085 975.607 595.996C983.437 591.906 985.681 585.668 986.094 578.5C986.508 571.331 980.934 560.311 967.918 557.383C954.902 554.454 929.44 566.756 939.085 601.06C948.73 635.364 998.428 629.966 1010.66 611.745C1014.06 606.688 1018.63 603.096 1023.78 600.793M1023.78 600.793C1032.32 578.765 1036.28 532.488 983.789 523.601C989.978 512.913 995.456 485.446 967.855 461.082C933.354 430.626 900.936 460.952 903.558 474.16C898.955 469.091 885.077 461.674 866.39 472.556C847.703 483.438 849.789 500.97 853.168 508.376C848.763 503.446 834.636 495.356 813.366 502.434C792.097 509.513 791.906 537.024 794.469 549.895C792.439 544.444 783.061 533.995 761.789 535.815C740.517 537.635 739.521 560.426 741.682 571.593M846.252 576.686C843.798 579.935 836.213 584.587 825.502 577.204C812.114 567.975 820.477 538.331 840.809 538.409C861.142 538.486 881.964 555.069 874.934 584.583C867.903 614.097 839.375 624.956 786.167 605.511C732.959 586.066 723.692 571.208 695.047 571.862C666.402 572.516 668.059 614.172 696.368 615.768C724.678 617.365 719.817 588.377 704.524 589.709M987.819 659.274C977.639 660.415 951.111 659.17 926.441 645.065C901.771 630.96 901.462 596.978 904.391 581.75M1060.89 574.219L1059.93 574.075L1059.69 575.682L1060.65 575.826L1060.89 574.219ZM1013.06 490.177L1012.1 490.033L1011.86 491.641L1012.82 491.785L1013.06 490.177ZM820.268 471.586L819.305 471.443L819.065 473.05L820.028 473.194L820.268 471.586ZM1015.07 441.51L1014.11 441.367L1013.87 442.974L1014.83 443.118L1015.07 441.51ZM706.038 533.409L705.075 533.265L704.835 534.872L705.798 535.016L706.038 533.409Z" stroke="#85A1FF" stroke-width="8.79674" stroke-linecap="round" stroke-linejoin="round"/>
</g>
<g clip-path="url(#clip2_1_403)">
<path d="M-407.262 869.526C-411.092 877.304 -418.483 888.483 -428.639 897.909M-428.639 897.909C-440.478 908.898 -456.076 917.507 -474.171 915.572C-507.788 911.977 -527.325 894.296 -532.891 885.905C-543.189 891.335 -569.132 899.885 -590.522 890.644C-617.259 879.092 -620.537 856.367 -610.415 839.201C-600.292 822.034 -570.652 817.119 -558.42 830.508C-559.636 812.834 -552.609 774.897 -514.774 764.535C-467.48 751.583 -432.952 800.319 -438.699 823.92C-429.503 818.918 -405.484 812.335 -382.978 826.011C-360.471 839.688 -363.398 864.659 -367.675 875.435C-355.332 871.2 -327.858 868.482 -316.707 891.493C-302.767 920.256 -337.829 946.597 -374.169 918.937C-387.522 926.875 -417.11 933.784 -428.639 897.909ZM-476.76 822.685C-485.681 816.907 -502.14 822.899 -504.478 838.56C-507.4 858.136 -481.156 878.952 -459.249 857.318M-261.534 1070.05C-256.723 1076.55 -269.787 1086.61 -278.318 1078.22C-286.85 1069.83 -287.291 1060.87 -284.992 1051.43C-282.694 1041.99 -271.11 1029.93 -253.08 1031.29C-235.049 1032.65 -206.91 1058.64 -232.979 1099.22C-259.049 1139.8 -321.334 1113.16 -329.988 1084.74C-332.39 1076.85 -336.891 1070.4 -342.663 1065.38C-357.685 1052.31 -381.318 1048.96 -398.974 1055.32C-423.413 1064.12 -435.627 1107.21 -409.688 1127.1C-383.75 1146.98 -363.213 1125.58 -365.55 1111.45C-367.42 1100.14 -377.47 1097.96 -382.262 1098.28M-342.663 1065.38C-345.019 1033.49 -331.843 972.038 -260.292 981.296C-264.088 965.016 -260.327 927.303 -214.913 906.688C-158.146 880.919 -128.117 932.985 -136.74 949.042C-128.769 944.302 -107.847 940.191 -87.9275 961.665C-68.008 983.138 -77.6458 1005 -84.9547 1013.25C-77.2953 1008.61 -55.7837 1003.73 -31.0126 1021.3C-6.24158 1038.87 -16.8744 1074.55 -25.2872 1090.2C-20.4997 1083.95 -4.21129 1074.13 22.6428 1084.9C49.4968 1095.67 41.7742 1125.56 34.5561 1139.15M-103.006 1104.39C-101.111 1109.56 -93.1181 1118.58 -76.3146 1113.27C-55.3103 1106.62 -54.4265 1064.95 -80.8131 1057.01C-107.2 1049.06 -140.748 1062.29 -143.307 1103.27C-145.866 1144.24 -113.182 1169.58 -36.5212 1165.46C40.1395 1161.33 58.0274 1145.77 94.8999 1157.95C131.772 1170.12 113.15 1223.37 75.823 1214.24C38.496 1205.11 56.261 1169.52 75.5575 1177.29M-590.289 1134.11C-589.281 1140.25 -586.532 1149.46 -581.509 1158.05M-581.509 1158.05C-575.652 1168.07 -566.706 1177.24 -553.824 1179.71C-529.893 1184.3 -512.713 1176.29 -507.114 1171.71C-501.154 1177.59 -485.063 1188.89 -468.376 1187.05C-447.518 1184.74 -440.489 1169.86 -443.864 1155.97C-447.24 1142.08 -466.643 1132.49 -477.887 1139.1C-473.339 1127.25 -470.221 1099.77 -494.131 1084.73C-524.019 1065.93 -558.052 1092.08 -559.044 1109.46C-564.334 1104.1 -579.511 1094.55 -597.899 1099.2C-616.286 1103.85 -619.509 1121.57 -618.822 1129.86C-626.443 1124.36 -644.814 1116.73 -657.331 1130.16C-672.979 1146.95 -654.334 1172.36 -623.475 1161.03C-615.936 1169.27 -596.986 1180.22 -581.509 1158.05ZM-532.544 1116.6C-525.181 1114.51 -515.091 1122.08 -516.766 1133.3C-518.86 1147.33 -541.322 1156.08 -551.885 1136.66M-421.742 966.535C-409.244 957.283 -392.207 968.275 -390.46 977.43C-387.474 993.085 -399.525 1014.32 -431.872 1004.6C-464.219 994.881 -547.761 955.728 -589.51 967.285C-631.259 978.841 -642.096 1004.76 -642.914 1033.58M-627.688 954.915C-622.215 943.132 -598.756 923.301 -548.697 938.245C-486.125 956.924 -473.91 967.197 -435.977 947.066M-562.529 1030.9C-567.16 1038.07 -581.338 1050.78 -601.004 1044.28C-625.585 1036.17 -620.916 995.95 -577.746 995.723C-543.209 995.542 -486.095 1019.63 -461.855 1031.7M-319.172 1155.28C-306.428 1160.78 -271.549 1169.66 -233.993 1161.17C-196.436 1152.67 -182.596 1108.81 -180.371 1087.95M-417.481 1209.09C-428.982 1220.57 -465.693 1240.05 -520.535 1226.17C-589.088 1208.83 -617.775 1202.76 -648.729 1215.04C-679.683 1227.32 -690.076 1270.28 -670.813 1294.46C-643.472 1328.78 -587.735 1306.86 -589.516 1265.24C-591.296 1223.62 -650.794 1238.75 -639.251 1266.71M-367.301 1178.34C-357.629 1188.99 -326.648 1210.69 -280.097 1212.29C-221.909 1214.28 -198.826 1172.85 -166.777 1181.59C-134.728 1190.33 -142.094 1242.65 -185.893 1229.22M-380.254 1016.31L-378.949 1016.5L-379.274 1018.68L-380.579 1018.48L-380.254 1016.31ZM-285.016 926.464L-283.711 926.658L-284.036 928.833L-285.341 928.639L-285.016 926.464ZM-403.631 1172.92L-402.326 1173.11L-402.651 1175.29L-403.956 1175.09L-403.631 1172.92ZM-638.15 1075.65L-636.845 1075.84L-637.169 1078.02L-638.474 1077.82L-638.15 1075.65ZM-613.474 910.342L-612.169 910.537L-612.494 912.712L-613.799 912.517L-613.474 910.342ZM-586.592 789.836L-585.286 790.031L-585.611 792.206L-586.916 792.011L-586.592 789.836ZM-653.413 1356.65L-652.108 1356.85L-652.433 1359.02L-653.738 1358.83L-653.413 1356.65ZM-542.125 1266.53L-540.82 1266.73L-541.144 1268.9L-542.449 1268.71L-542.125 1266.53ZM-508.358 1040.32L-507.053 1040.52L-507.377 1042.69L-508.682 1042.5L-508.358 1040.32ZM-27.7589 978.651L-26.4539 978.846L-26.7786 981.021L-28.0836 980.826L-27.7589 978.651ZM-268.38 862.685L-267.075 862.88L-267.4 865.055L-268.705 864.86L-268.38 862.685ZM95.8618 1103.83L97.1669 1104.03L96.8422 1106.2L95.5372 1106.01L95.8618 1103.83Z" stroke="#85A1FF" stroke-width="8.79674" stroke-linecap="round" stroke-linejoin="round"/>
<path d="M-479.777 528.527C-478.816 537.145 -475.661 550.169 -469.31 562.484M-469.31 562.484C-461.907 576.841 -450.16 590.235 -432.483 594.561C-399.643 602.597 -375.263 592.602 -367.177 586.601C-359.336 595.205 -337.839 612.058 -314.582 610.631C-285.511 608.847 -274.71 588.587 -278.4 569.002C-282.091 549.418 -308.299 534.729 -324.352 543.167C-317.205 526.957 -310.93 488.888 -342.997 466.292C-383.08 438.047 -432.108 472.159 -434.719 496.309C-441.669 488.482 -462.024 474.132 -487.838 479.352C-513.652 484.572 -519.38 509.053 -519.017 520.641C-529.188 512.465 -554.105 500.578 -572.409 518.433C-595.289 540.753 -571.258 577.436 -527.684 563.762C-517.821 575.764 -492.338 592.311 -469.31 562.484ZM-398.501 508.075C-388.148 505.67 -374.702 516.896 -377.822 532.42C-381.722 551.825 -413.476 562.49 -426.733 534.702M27.5963 781.491C21.0969 786.302 30.6541 799.736 41.2634 794.205C51.8728 788.673 54.9116 780.232 55.4701 770.532C56.0287 760.832 48.4713 745.918 30.8305 741.95C13.1896 737.983 -21.3136 754.623 -8.23142 801.047C4.85074 847.471 72.2008 840.181 88.7774 815.528C93.3785 808.685 99.5678 803.827 106.554 800.711C124.737 792.602 148.319 796.298 163.347 807.537C184.15 823.094 183.247 867.874 152.633 879.314C122.019 890.754 108.625 864.295 114.988 851.459C120.079 841.19 130.329 842.039 134.817 843.746M106.554 800.711C118.119 770.905 123.464 708.283 52.3289 696.242C60.7136 681.78 68.1294 644.613 30.7158 611.634C-16.0511 570.41 -59.9757 611.437 -56.4179 629.312C-62.6574 622.451 -81.4669 612.409 -106.789 627.129C-132.111 641.849 -129.279 665.575 -124.697 675.598C-130.668 668.925 -149.816 657.973 -178.639 667.546C-207.462 677.118 -207.713 714.347 -204.235 731.765C-206.988 724.387 -219.7 710.245 -248.529 712.701C-277.357 715.158 -278.699 745.998 -275.767 761.111M-134.048 768.035C-137.373 772.431 -147.651 778.724 -162.169 768.73C-180.316 756.237 -168.992 716.125 -141.436 716.236C-113.881 716.346 -85.657 738.793 -95.1762 778.73C-104.695 818.667 -143.354 833.352 -215.469 807.023C-287.584 780.693 -300.147 760.585 -338.968 761.461C-377.788 762.337 -375.53 818.707 -337.164 820.876C-298.798 823.045 -305.394 783.816 -326.119 785.614M257.486 1014.59C254.73 1020.17 249.41 1028.17 242.097 1034.92M242.097 1034.92C233.571 1042.79 222.336 1048.95 209.294 1047.56C185.065 1044.96 170.974 1032.27 166.958 1026.26C159.54 1030.14 140.849 1036.25 125.428 1029.62C106.152 1021.32 103.776 1005.03 111.061 992.738C118.345 980.44 139.703 976.936 148.526 986.539C147.639 973.872 152.68 946.687 179.941 939.284C214.016 930.029 238.929 964.978 234.802 981.89C241.426 978.311 258.732 973.607 274.96 983.423C291.188 993.239 289.094 1011.13 286.018 1018.85C294.911 1015.83 314.709 1013.89 322.759 1030.39C332.822 1051.02 307.57 1069.87 281.365 1050.03C271.746 1055.71 250.427 1060.64 242.097 1034.92ZM207.372 980.982C200.939 976.835 189.081 981.12 187.406 992.342C185.312 1006.37 204.237 1021.31 220.012 1005.81M-572.449 617.96C-581.062 605.013 -600.82 609.566 -605.572 617.583C-613.698 631.294 -609.576 655.36 -575.85 657.204C-542.124 659.048 -450.25 650.595 -414.908 675.644C-379.566 700.693 -378.175 728.751 -387.194 756.136M-374.799 676.976C-375.944 664.035 -391.274 637.416 -443.432 634.47C-508.629 630.787 -523.607 636.3 -552.448 604.483M-461.892 726.318C-459.97 734.63 -450.95 751.397 -430.249 751.969C-404.371 752.684 -395.104 713.272 -435.632 698.397C-468.054 686.497 -529.955 689.757 -556.853 692.875M57.8316 879.838C44.0356 881.379 8.08422 879.686 -25.3538 860.591C-58.7918 841.496 -59.2207 795.511 -55.2554 774.905M70.3139 1035.84C77.9615 1050.17 107.383 1079.53 163.887 1082.27C234.518 1085.7 263.724 1088.28 289.743 1109.06C315.763 1129.84 313.157 1173.97 287.671 1191.47C251.499 1216.31 204.594 1179.07 218.452 1139.78C232.31 1100.49 284.796 1132.34 265.589 1155.71M79.9929 955.4C66.2462 959.644 28.533 962.551 -12.3463 940.226C-63.4454 912.319 -62.2239 864.913 -94.2571 856.118C-126.29 847.323 -146.588 896.109 -102.049 906.841M156.836 764.762L155.531 764.567L155.206 766.742L156.511 766.937L156.836 764.762ZM91.9878 651.02L90.6828 650.825L90.3581 653L91.6631 653.195L91.9878 651.02ZM133.459 921.366L132.154 921.171L131.83 923.346L133.135 923.541L133.459 921.366ZM320.334 972.655L319.029 972.46L318.704 974.635L320.009 974.83L320.334 972.655ZM-373.029 630.226L-374.323 629.966L-374.756 632.122L-373.462 632.382L-373.029 630.226ZM-284.041 514.481L-285.335 514.221L-285.768 516.377L-284.475 516.637L-284.041 514.481ZM252.868 1245.86L251.563 1245.67L251.238 1247.85L252.544 1248.04L252.868 1245.86ZM172.749 1127.17L171.444 1126.98L171.119 1129.15L172.425 1129.35L172.749 1127.17ZM-516.043 716.78L-517.337 716.52L-517.77 718.676L-516.476 718.936L-516.043 716.78ZM-169.295 625.804L-170.6 625.609L-170.925 627.784L-169.62 627.979L-169.295 625.804ZM94.703 585.164L93.3979 584.969L93.0732 587.144L94.3783 587.339L94.703 585.164ZM-324.085 709.428L-325.39 709.233L-325.715 711.408L-324.41 711.603L-324.085 709.428Z" stroke="#85A1FF" stroke-width="8.79674" stroke-linecap="round" stroke-linejoin="round"/>
<path d="M104.382 89.3391C105.343 97.9562 108.498 110.98 114.849 123.296M114.849 123.296C122.252 137.653 133.998 151.047 151.675 155.372C184.515 163.408 208.895 153.414 216.98 147.412C224.822 156.017 246.319 172.869 269.576 171.442C298.647 169.659 309.448 149.398 305.758 129.814C302.067 110.229 275.858 95.5403 259.806 103.978C266.952 87.7685 273.228 49.6997 241.161 27.1038C201.078 -1.1411 152.051 32.971 149.44 57.121C142.489 49.2936 122.134 34.9437 96.3207 40.1637C70.507 45.3837 64.7791 69.8643 65.1419 81.4522C54.9711 73.2766 30.0534 61.3894 11.7495 79.2448C-11.1304 101.564 12.9012 138.247 56.4749 124.573C66.338 136.575 91.8209 153.122 114.849 123.296ZM185.657 68.8867C196.011 66.4813 209.456 77.7078 206.336 93.2314C202.436 112.636 170.683 123.302 157.425 95.5139M718.974 404.558C714.486 402.85 704.236 402.002 699.145 412.271C692.782 425.107 706.176 451.565 736.79 440.125C767.404 428.686 768.307 383.905 747.504 368.348C732.476 357.109 708.894 353.413 690.711 361.522M611.753 342.303C605.254 347.114 614.811 360.548 625.42 355.016C636.03 349.484 639.069 341.044 639.627 331.343C640.186 321.643 632.628 306.729 614.988 302.762C597.347 298.794 562.844 315.435 575.926 361.858C589.008 408.282 656.358 400.992 672.935 376.339C677.536 369.496 683.725 364.638 690.711 361.522M690.711 361.522C702.276 331.716 707.621 269.095 636.486 257.053C644.871 242.592 652.286 205.424 614.873 172.445C568.106 131.221 524.182 172.249 527.74 190.123C521.5 183.262 502.691 173.221 477.368 187.941C452.046 202.661 454.879 226.386 459.46 236.409C453.489 229.737 434.341 218.785 405.518 228.357C376.695 237.93 376.445 275.159 379.923 292.577C377.17 285.199 364.457 271.057 335.629 273.513C306.801 275.969 305.459 306.81 308.391 321.923M450.109 328.847C446.785 333.242 436.506 339.535 421.989 329.541C403.842 317.048 415.166 276.936 442.721 277.047C470.277 277.158 498.5 299.604 488.981 339.541C479.462 379.478 440.804 394.164 368.689 367.834C296.574 341.505 284.01 321.396 245.19 322.272C206.369 323.148 208.628 379.518 246.994 381.688C285.36 383.857 278.764 344.627 258.039 346.426M955.636 376.887C952.881 382.46 947.561 390.467 940.248 397.217M940.248 397.217C931.722 405.085 920.487 411.246 907.445 409.848C883.216 407.251 869.125 394.567 865.109 388.55C857.691 392.435 839 398.547 823.579 391.911C804.303 383.616 801.927 367.327 809.211 355.03C816.496 342.733 837.854 339.229 846.677 348.831C845.79 336.164 850.831 308.98 878.091 301.576C912.167 292.322 937.08 327.271 932.953 344.182C939.577 340.604 956.883 335.9 973.111 345.715C989.339 355.531 987.244 373.426 984.169 381.146C993.061 378.119 1012.86 376.187 1020.91 392.686C1030.97 413.309 1005.72 432.166 979.515 412.32C969.897 418.002 948.578 422.935 940.248 397.217ZM905.523 343.275C899.09 339.128 887.232 343.413 885.557 354.635C883.463 368.663 902.388 383.598 918.163 368.107M11.7103 178.771C3.09673 165.824 -16.6611 170.377 -21.4129 178.395C-29.5389 192.105 -25.4167 216.172 8.30882 218.016C42.0343 219.859 133.908 211.407 169.25 236.456C204.593 261.504 205.983 289.562 196.964 316.948M209.359 237.788C208.214 224.846 192.884 198.227 140.727 195.281C75.5297 191.598 60.552 197.112 31.7104 165.295M122.266 287.129C124.188 295.441 133.208 312.209 153.91 312.78C179.787 313.495 189.054 274.084 148.527 259.208C116.105 247.308 54.2036 250.569 27.3058 253.687M641.989 440.649C628.193 442.19 592.241 440.497 558.803 421.402C525.365 402.308 524.937 356.322 528.902 335.717M637.323 502.981C623.977 508.353 586.636 514.386 544.042 495.537C490.8 471.976 488.075 424.633 455.422 418.531C422.768 412.43 406.597 462.735 451.875 469.726M740.993 325.573L739.688 325.378L739.363 327.553L740.668 327.748L740.993 325.573ZM676.145 211.831L674.84 211.637L674.515 213.812L675.82 214.007L676.145 211.831ZM831.61 283.658L830.305 283.463L829.98 285.638L831.285 285.833L831.61 283.658ZM1018.48 334.947L1017.18 334.753L1016.85 336.928L1018.16 337.123L1018.48 334.947ZM211.129 191.037L209.835 190.777L209.402 192.933L210.695 193.193L211.129 191.037ZM300.117 75.2925L298.823 75.0325L298.39 77.1886L299.683 77.4486L300.117 75.2925ZM68.116 277.591L66.8223 277.331L66.3889 279.487L67.6827 279.747L68.116 277.591ZM414.862 186.615L413.557 186.42L413.232 188.595L414.538 188.79L414.862 186.615ZM678.86 145.975L677.555 145.78L677.23 147.955L678.536 148.15L678.86 145.975ZM260.073 270.239L258.768 270.044L258.443 272.219L259.748 272.414L260.073 270.239Z" stroke="#85A1FF" stroke-width="8.79674" stroke-linecap="round" stroke-linejoin="round"/>
<path d="M215.004 511.543C215.965 520.16 219.12 533.184 225.47 545.5M225.47 545.5C232.874 559.857 244.62 573.251 262.297 577.576C295.137 585.612 319.517 575.618 327.602 569.616C335.444 578.221 356.941 595.073 380.198 593.646C409.269 591.863 420.07 571.602 416.38 552.018C412.689 532.433 386.48 517.744 370.428 526.182C377.574 509.972 383.85 471.904 351.783 449.308C311.7 421.063 262.673 455.175 260.062 479.325C253.111 471.498 232.756 457.148 206.942 462.368C181.129 467.588 175.401 492.068 175.764 503.656C165.593 495.481 140.675 483.593 122.371 501.449C99.4914 523.768 123.523 560.451 167.097 546.777C176.96 558.779 202.443 575.326 225.47 545.5ZM296.279 491.091C306.632 488.685 320.078 499.912 316.958 515.435C313.058 534.84 281.305 545.506 268.047 517.718M122.332 600.975C113.719 588.028 93.9608 592.581 89.2089 600.599C81.0829 614.309 85.2051 638.376 118.931 640.22C152.656 642.063 244.53 633.611 279.872 658.66C315.214 683.708 316.605 711.766 307.586 739.152M319.981 659.992C318.836 647.05 303.506 620.431 251.349 617.485C186.151 613.802 171.174 619.316 142.332 587.498M232.888 709.333C234.81 717.645 243.83 734.413 264.532 734.984C290.409 735.699 299.676 696.287 259.148 681.412C226.726 669.512 164.825 672.773 137.928 675.891M321.751 613.241L320.457 612.981L320.024 615.137L321.317 615.397L321.751 613.241ZM410.739 497.497L409.445 497.237L409.012 499.393L410.306 499.653L410.739 497.497ZM178.738 699.795L177.444 699.535L177.011 701.691L178.304 701.951L178.738 699.795Z" stroke="#85A1FF" stroke-width="8.79674" stroke-linecap="round" stroke-linejoin="round"/>
<path d="M498.674 522.459C493.421 514.633 481.509 517.504 478.672 522.404C473.82 530.781 476.406 545.39 496.778 546.334C517.15 547.278 572.592 541.658 594.034 556.701C615.475 571.743 616.428 588.793 611.092 605.489M619.138 528.87L618.356 528.718L618.103 530.031L618.885 530.183L619.138 528.87ZM533.131 582.239L532.349 582.087L532.096 583.4L532.878 583.552L533.131 582.239Z" stroke="#85A1FF" stroke-width="8.79674" stroke-linecap="round" stroke-linejoin="round"/>
<path d="M56.6569 494.315C62.1427 484.991 75.9957 487.457 79.5841 492.872C85.7203 502.131 83.7574 519.041 60.4673 521.527C37.1772 524.014 -26.7679 521.402 -50.3177 540.108C-73.8675 558.815 -73.7906 578.406 -66.5288 597.158M-17.0897 495.307C-18.8442 500.989 -25.9394 512.182 -40.2852 511.503C-58.2173 510.653 -62.6105 482.756 -33.8223 474.518C-10.7918 467.928 31.8498 473.419 50.2918 476.988M51.7083 570.308L52.6163 570.194L52.8057 571.716L51.8977 571.83L51.7083 570.308Z" stroke="#85A1FF" stroke-width="8.79674" stroke-linecap="round" stroke-linejoin="round"/>
<path d="M530.349 668.13C527.594 673.703 522.274 681.71 514.961 688.459M514.961 688.459C506.435 696.328 495.2 702.488 482.158 701.09C457.929 698.494 443.838 685.81 439.822 679.793C432.404 683.678 413.713 689.79 398.292 683.154C379.016 674.859 376.64 658.57 383.924 646.273C391.209 633.976 412.567 630.471 421.39 640.074C420.503 627.407 425.544 600.222 452.804 592.819C486.88 583.565 511.793 618.514 507.666 635.425C514.29 631.846 531.596 627.142 547.824 636.958C564.052 646.774 561.957 664.669 558.882 672.389C567.774 669.361 587.572 667.43 595.623 683.929C605.686 704.552 580.434 723.409 554.228 703.563C544.61 709.244 523.291 714.178 514.961 688.459ZM480.236 634.518C473.803 630.37 461.945 634.655 460.27 645.878C458.176 659.906 477.101 674.841 492.876 659.35M406.323 574.901L405.018 574.706L404.693 576.881L405.998 577.076L406.323 574.901ZM593.197 626.19L591.892 625.995L591.568 628.171L592.873 628.365L593.197 626.19Z" stroke="#85A1FF" stroke-width="8.79674" stroke-linecap="round" stroke-linejoin="round"/>
<path d="M95.6121 398.443C92.8563 404.015 87.5367 412.022 80.2234 418.772M80.2234 418.772C71.6976 426.641 60.4622 432.801 47.4204 431.403C23.1913 428.806 9.10084 416.122 5.08424 410.105C-2.33371 413.991 -21.0248 420.102 -36.4454 413.466C-55.7211 405.172 -58.0976 388.883 -50.8129 376.585C-43.5283 364.288 -22.1707 360.784 -13.3472 370.387C-14.2342 357.719 -9.19328 330.535 18.067 323.131C52.1425 313.877 77.0554 348.826 72.9284 365.738C79.5527 362.159 96.8583 357.455 113.086 367.271C129.314 377.087 127.22 394.981 124.145 402.702C133.037 399.674 152.835 397.743 160.886 414.241C170.949 434.864 145.697 453.721 119.491 433.875C109.873 439.557 88.5536 444.49 80.2234 418.772ZM45.4982 364.83C39.0656 360.683 27.2074 364.968 25.5322 376.19C23.4382 390.218 42.3639 405.154 58.1386 389.662M-28.4142 305.214L-29.7193 305.019L-30.044 307.194L-28.7389 307.389L-28.4142 305.214ZM158.46 356.503L157.155 356.308L156.83 358.483L158.135 358.678L158.46 356.503Z" stroke="#85A1FF" stroke-width="8.79674" stroke-linecap="round" stroke-linejoin="round"/>
<path d="M243.248 852.47C246.79 852.232 254.22 853.845 255.603 862.202C257.331 872.647 242.15 888.456 222.974 873.763C203.798 859.069 212.825 827.224 230.892 820.719C243.944 816.02 261.415 818.498 272.52 828.154M332.496 831.614C336.052 836.417 326.395 843.849 320.088 837.649C313.781 831.449 313.454 824.828 315.153 817.851C316.852 810.875 325.415 801.965 338.744 802.969C352.073 803.972 372.877 823.181 353.606 853.169C334.336 883.156 288.29 863.466 281.891 842.464C280.115 836.634 276.787 831.864 272.52 828.154M272.52 828.154C270.778 804.592 280.516 759.178 333.41 766.022C330.603 753.991 333.383 726.121 366.955 710.888C408.919 691.847 431.12 730.325 424.746 742.191C430.639 738.689 446.106 735.652 460.832 751.521C475.559 767.391 468.435 783.548 463.032 789.643C468.694 786.216 484.596 782.609 502.909 795.596C521.222 808.583 513.363 834.95 507.144 846.51C510.683 841.89 522.724 834.638 542.577 842.597C562.429 850.556 556.721 872.643 551.386 882.692M449.69 856.995C451.092 860.819 457.001 867.485 469.423 863.556C484.95 858.643 485.602 827.848 466.095 821.979C446.588 816.109 421.788 825.881 419.898 856.163C418.007 886.444 442.171 905.168 498.843 902.126C555.514 899.083 568.738 887.582 595.996 896.581C623.255 905.58 609.49 944.933 581.896 938.185C554.301 931.437 567.432 905.134 581.698 910.879M289.889 894.597C299.311 898.663 325.096 905.227 352.86 898.949C380.623 892.671 390.853 860.262 392.497 844.843M257.91 943.219C266.713 949.186 292.751 959.381 326.473 952.426C368.626 943.732 377.996 909.963 402.543 910.661C427.09 911.359 430.911 950.222 397.103 948.193M244.729 791.893L245.694 792.037L245.454 793.644L244.489 793.5L244.729 791.893ZM315.131 725.5L316.096 725.644L315.856 727.251L314.891 727.107L315.131 725.5ZM505.313 764.077L506.278 764.221L506.038 765.828L505.073 765.684L505.313 764.077ZM327.426 678.368L328.391 678.512L328.151 680.119L327.186 679.975L327.426 678.368ZM596.705 856.593L597.67 856.737L597.43 858.344L596.465 858.2L596.705 856.593Z" stroke="#85A1FF" stroke-width="8.79674" stroke-linecap="round" stroke-linejoin="round"/>
</g>
<g clip-path="url(#clip3_1_403)">
<path d="M738.953 710.45C739.914 719.067 743.069 732.091 749.42 744.407M749.42 744.407C756.823 758.764 768.57 772.158 786.247 776.484C819.086 784.52 843.467 774.525 851.552 768.524C859.394 777.128 880.891 793.981 904.148 792.554C933.219 790.77 944.02 770.509 940.33 750.925C936.639 731.341 910.431 716.652 894.378 725.09C901.524 708.88 907.8 670.811 875.733 648.215C835.65 619.97 786.622 654.082 784.011 678.232C777.06 670.405 756.705 656.055 730.892 661.275C705.078 666.495 699.35 690.976 699.713 702.563C689.542 694.388 664.624 682.501 646.321 700.356C623.441 722.675 647.472 759.358 691.046 745.685C700.909 757.687 726.392 774.234 749.42 744.407ZM820.229 689.998C830.582 687.593 844.028 698.819 840.908 714.343C837.008 733.747 805.254 744.413 791.997 716.625M1246.33 963.414C1239.83 968.225 1249.38 981.659 1259.99 976.127C1270.6 970.596 1273.64 962.155 1274.2 952.455C1274.76 942.755 1267.2 927.841 1249.56 923.873C1231.92 919.906 1197.42 936.546 1210.5 982.97C1223.58 1029.39 1290.93 1022.1 1307.51 997.451C1312.11 990.608 1318.3 985.749 1325.28 982.634C1343.47 974.524 1367.05 978.22 1382.08 989.459C1402.88 1005.02 1401.98 1049.8 1371.36 1061.24C1340.75 1072.68 1327.35 1046.22 1333.72 1033.38C1338.81 1023.11 1349.06 1023.96 1353.55 1025.67M1325.28 982.634C1336.85 952.828 1342.19 890.206 1271.06 878.165C1279.44 863.703 1286.86 826.536 1249.45 793.557C1202.68 752.333 1158.75 793.36 1162.31 811.235C1156.07 804.374 1137.26 794.332 1111.94 809.052C1086.62 823.772 1089.45 847.498 1094.03 857.521C1088.06 850.848 1068.91 839.896 1040.09 849.469C1011.27 859.041 1011.02 896.27 1014.49 913.688C1011.74 906.31 999.029 892.168 970.201 894.624C941.373 897.081 940.031 927.921 942.963 943.034M1084.68 949.958C1081.36 954.354 1071.08 960.646 1056.56 950.652C1038.41 938.16 1049.74 898.048 1077.29 898.158C1104.85 898.269 1133.07 920.715 1123.55 960.653C1114.03 1000.59 1075.38 1015.28 1003.26 988.946C931.146 962.616 918.583 942.508 879.762 943.384C840.942 944.259 843.2 1000.63 881.566 1002.8C919.932 1004.97 913.336 965.739 892.611 967.537M1476.22 1196.52C1473.46 1202.09 1468.14 1210.1 1460.83 1216.85M1460.83 1216.85C1452.3 1224.72 1441.07 1230.88 1428.02 1229.48C1403.79 1226.88 1389.7 1214.2 1385.69 1208.18C1378.27 1212.07 1359.58 1218.18 1344.16 1211.54C1324.88 1203.25 1322.51 1186.96 1329.79 1174.66C1337.08 1162.36 1358.43 1158.86 1367.26 1168.46C1366.37 1155.79 1371.41 1128.61 1398.67 1121.21C1432.75 1111.95 1457.66 1146.9 1453.53 1163.81C1460.16 1160.23 1477.46 1155.53 1493.69 1165.35C1509.92 1175.16 1507.82 1193.06 1504.75 1200.78C1513.64 1197.75 1533.44 1195.82 1541.49 1212.32C1551.55 1232.94 1526.3 1251.8 1500.09 1231.95C1490.48 1237.63 1469.16 1242.57 1460.83 1216.85ZM1426.1 1162.9C1419.67 1158.76 1407.81 1163.04 1406.14 1174.27C1404.04 1188.29 1422.97 1203.23 1438.74 1187.74M646.281 799.883C637.668 786.936 617.91 791.488 613.158 799.506C605.032 813.216 609.154 837.283 642.88 839.127C676.605 840.97 768.48 832.518 803.822 857.567C839.164 882.616 840.555 910.674 831.536 938.059M843.931 858.899C842.786 845.958 827.456 819.339 775.298 816.392C710.101 812.71 695.123 818.223 666.281 786.406M756.838 908.24C758.76 916.553 767.78 933.32 788.481 933.892C814.358 934.606 823.626 895.195 783.098 880.32C750.676 868.42 688.775 871.68 661.877 874.798M1276.56 1061.76C1262.77 1063.3 1226.81 1061.61 1193.38 1042.51C1159.94 1023.42 1159.51 977.434 1163.47 956.828M1289.04 1217.76C1296.69 1232.1 1326.11 1261.45 1382.62 1264.19C1453.25 1267.62 1482.45 1270.2 1508.47 1290.98C1534.49 1311.77 1531.89 1355.89 1506.4 1373.39C1470.23 1398.23 1423.32 1360.99 1437.18 1321.7C1451.04 1282.41 1503.53 1314.26 1484.32 1337.63M1298.72 1137.32C1284.98 1141.57 1247.26 1144.47 1206.38 1122.15C1155.28 1094.24 1156.51 1046.84 1124.47 1038.04C1092.44 1029.25 1072.14 1078.03 1116.68 1088.76M1375.57 946.685L1374.26 946.49L1373.94 948.665L1375.24 948.86L1375.57 946.685ZM1310.72 832.943L1309.41 832.748L1309.09 834.923L1310.39 835.118L1310.72 832.943ZM1352.19 1103.29L1350.88 1103.09L1350.56 1105.27L1351.86 1105.46L1352.19 1103.29ZM1539.06 1154.58L1537.76 1154.38L1537.43 1156.56L1538.74 1156.75L1539.06 1154.58ZM845.701 812.149L844.407 811.889L843.974 814.045L845.267 814.305L845.701 812.149ZM934.689 696.404L933.395 696.144L932.962 698.3L934.255 698.56L934.689 696.404ZM1471.6 1427.79L1470.29 1427.59L1469.97 1429.77L1471.27 1429.96L1471.6 1427.79ZM1391.48 1309.1L1390.17 1308.9L1389.85 1311.08L1391.15 1311.27L1391.48 1309.1ZM702.687 898.703L701.393 898.443L700.96 900.599L702.254 900.859L702.687 898.703ZM1049.43 807.727L1048.13 807.532L1047.8 809.707L1049.11 809.902L1049.43 807.727ZM1313.43 767.087L1312.13 766.892L1311.8 769.067L1313.11 769.262L1313.43 767.087ZM894.644 891.351L893.339 891.156L893.015 893.331L894.32 893.526L894.644 891.351Z" stroke="#85A1FF" stroke-width="8.79674" stroke-linecap="round" stroke-linejoin="round"/>
<path d="M104.382 89.339C105.343 97.956 108.498 110.98 114.849 123.296M114.849 123.296C122.252 137.653 133.998 151.047 151.675 155.372C184.515 163.408 208.895 153.414 216.98 147.412C224.822 156.017 246.319 172.869 269.576 171.442C298.647 169.659 309.448 149.398 305.758 129.814C302.067 110.229 275.858 95.5402 259.806 103.978C266.952 87.7684 273.228 49.6996 241.161 27.1037C201.078 -1.14122 152.051 32.9708 149.44 57.1209C142.489 49.2935 122.134 34.9436 96.3207 40.1636C70.507 45.3836 64.7791 69.8642 65.1419 81.452C54.9711 73.2765 30.0534 61.3892 11.7495 79.2447C-11.1304 101.564 12.9012 138.247 56.4749 124.573C66.338 136.575 91.8209 153.122 114.849 123.296ZM185.657 68.8866C196.011 66.4812 209.456 77.7076 206.336 93.2313C202.436 112.636 170.683 123.302 157.425 95.5138M718.974 404.557C714.486 402.85 704.236 402.002 699.145 412.271C692.782 425.107 706.176 451.565 736.79 440.125C767.404 428.685 768.307 383.905 747.504 368.348C732.476 357.109 708.894 353.413 690.711 361.522M611.753 342.303C605.254 347.114 614.811 360.547 625.42 355.016C636.03 349.484 639.069 341.044 639.627 331.343C640.186 321.643 632.628 306.729 614.988 302.762C597.347 298.794 562.844 315.435 575.926 361.858C589.008 408.282 656.358 400.992 672.935 376.339C677.536 369.496 683.725 364.638 690.711 361.522M690.711 361.522C702.276 331.716 707.621 269.095 636.486 257.053C644.871 242.592 652.286 205.424 614.873 172.445C568.106 131.221 524.182 172.248 527.74 190.123C521.5 183.262 502.691 173.221 477.368 187.941C452.046 202.661 454.879 226.386 459.46 236.409C453.489 229.737 434.341 218.785 405.518 228.357C376.695 237.93 376.445 275.158 379.923 292.577C377.17 285.198 364.457 271.056 335.629 273.513C306.801 275.969 305.459 306.81 308.391 321.923M450.109 328.847C446.785 333.242 436.506 339.535 421.989 329.541C403.842 317.048 415.166 276.936 442.721 277.047C470.277 277.158 498.5 299.604 488.981 339.541C479.462 379.478 440.804 394.164 368.689 367.834C296.574 341.504 284.01 321.396 245.19 322.272C206.369 323.148 208.628 379.518 246.994 381.687C285.36 383.857 278.764 344.627 258.039 346.425M955.636 376.887C952.881 382.46 947.561 390.467 940.248 397.217M940.248 397.217C931.722 405.085 920.487 411.245 907.445 409.848C883.216 407.251 869.125 394.567 865.109 388.55C857.691 392.435 839 398.547 823.579 391.911C804.303 383.616 801.927 367.327 809.211 355.03C816.496 342.733 837.854 339.228 846.677 348.831C845.79 336.164 850.831 308.979 878.091 301.576C912.167 292.322 937.08 327.271 932.953 344.182C939.577 340.603 956.883 335.899 973.111 345.715C989.339 355.531 987.244 373.426 984.169 381.146C993.061 378.118 1012.86 376.187 1020.91 392.686C1030.97 413.309 1005.72 432.166 979.515 412.32C969.897 418.001 948.578 422.935 940.248 397.217ZM905.523 343.275C899.09 339.128 887.232 343.412 885.557 354.635C883.463 368.663 902.388 383.598 918.163 368.107M11.7103 178.771C3.09673 165.824 -16.6611 170.377 -21.4129 178.395C-29.5389 192.105 -25.4167 216.172 8.30882 218.015C42.0343 219.859 133.908 211.407 169.25 236.456C204.593 261.504 205.983 289.562 196.964 316.947M209.359 237.788C208.214 224.846 192.884 198.227 140.727 195.281C75.5297 191.598 60.552 197.112 31.7104 165.294M122.266 287.129C124.188 295.441 133.208 312.209 153.91 312.78C179.787 313.495 189.054 274.083 148.527 259.208C116.105 247.308 54.2036 250.569 27.3058 253.687M641.989 440.649C628.193 442.19 592.241 440.497 558.803 421.402C525.365 402.307 524.937 356.322 528.902 335.716M637.323 502.98C623.977 508.353 586.636 514.386 544.042 495.537C490.8 471.976 488.075 424.632 455.422 418.531C422.768 412.43 406.597 462.735 451.875 469.726M740.993 325.573L739.688 325.378L739.363 327.553L740.668 327.748L740.993 325.573ZM676.145 211.831L674.84 211.637L674.515 213.812L675.82 214.006L676.145 211.831ZM831.61 283.658L830.305 283.463L829.98 285.638L831.285 285.833L831.61 283.658ZM1018.48 334.947L1017.18 334.753L1016.85 336.928L1018.16 337.122L1018.48 334.947ZM211.129 191.037L209.835 190.777L209.402 192.933L210.695 193.193L211.129 191.037ZM300.117 75.2924L298.823 75.0324L298.39 77.1885L299.683 77.4485L300.117 75.2924ZM68.116 277.591L66.8223 277.331L66.3889 279.487L67.6827 279.747L68.116 277.591ZM414.862 186.615L413.557 186.42L413.232 188.595L414.538 188.79L414.862 186.615ZM678.86 145.975L677.555 145.78L677.23 147.955L678.536 148.15L678.86 145.975ZM260.073 270.239L258.768 270.044L258.443 272.219L259.748 272.414L260.073 270.239Z" stroke="#85A1FF" stroke-width="8.79674" stroke-linecap="round" stroke-linejoin="round"/>
<path d="M1110.53 405.482C1115.53 394.701 1104.68 383.635 1097.56 383.736C1085.38 383.908 1071.33 396.197 1083.58 418.921C1095.84 441.645 1138 498.174 1135.77 531.21C1133.54 564.246 1115.8 576.346 1094.35 581.391M1083.99 520.792C1079.33 525.362 1072 537.932 1079.89 551.657C1089.74 568.814 1119.14 559.133 1112.67 526.775C1107.49 500.889 1080.67 461.831 1067.91 445.537M1068.6 481.682L1068.25 480.735L1066.68 481.312L1067.02 482.26L1068.6 481.682Z" stroke="#85A1FF" stroke-width="8.79674" stroke-linecap="round" stroke-linejoin="round"/>
<path d="M969.036 807.092C959.66 808.055 956.602 819.921 959.595 824.726C964.714 832.943 978.827 837.52 989.225 819.976C999.624 802.433 1020.69 750.844 1044.04 738.976C1067.39 727.108 1082.89 734.272 1095.13 746.823M1031.26 703.743L1030.76 704.362L1031.8 705.202L1032.3 704.583L1031.26 703.743ZM1037.99 804.738L1037.49 805.358L1038.53 806.197L1039.04 805.578L1037.99 804.738Z" stroke="#85A1FF" stroke-width="8.79674" stroke-linecap="round" stroke-linejoin="round"/>
<path d="M498.674 522.459C493.421 514.633 481.509 517.504 478.672 522.403C473.82 530.781 476.406 545.39 496.778 546.334C517.15 547.278 572.592 541.658 594.034 556.7C615.475 571.743 616.428 588.793 611.092 605.489M619.138 528.87L618.356 528.718L618.103 530.031L618.885 530.183L619.138 528.87ZM533.132 582.238L532.349 582.087L532.096 583.4L532.879 583.551L533.132 582.238Z" stroke="#85A1FF" stroke-width="8.79674" stroke-linecap="round" stroke-linejoin="round"/>
<path d="M1044.63 632.59C1041.32 631.329 1033.76 630.704 1030 638.293C1025.3 647.78 1035.18 667.33 1057.77 658.871C1080.36 650.412 1081.04 617.32 1065.69 605.827C1054.6 597.525 1037.2 594.797 1023.78 600.793M965.525 586.603C960.728 590.16 967.778 600.085 975.607 595.996C983.437 591.906 985.681 585.668 986.094 578.5C986.508 571.332 980.934 560.312 967.918 557.383C954.902 554.454 929.44 566.757 939.085 601.061C948.73 635.364 998.428 629.966 1010.66 611.745C1014.06 606.688 1018.63 603.097 1023.78 600.793M1023.78 600.793C1032.32 578.765 1036.28 532.488 983.789 523.602C989.978 512.914 995.456 485.446 967.855 461.082C933.354 430.627 900.936 460.952 903.558 474.16C898.955 469.091 885.077 461.674 866.39 472.556C847.703 483.438 849.789 500.97 853.168 508.376C848.763 503.446 834.636 495.356 813.366 502.435C792.097 509.513 791.906 537.025 794.469 549.896C792.439 544.444 783.061 533.995 761.789 535.815C740.517 537.635 739.521 560.426 741.682 571.594M846.252 576.687C843.798 579.935 836.213 584.587 825.502 577.204C812.114 567.976 820.477 538.332 840.809 538.409C861.142 538.486 881.964 555.069 874.934 584.583C867.903 614.097 839.375 624.956 786.167 605.511C732.959 586.066 723.692 571.209 695.047 571.862C666.402 572.516 668.059 614.172 696.368 615.769C724.678 617.365 719.817 588.377 704.524 589.709M987.819 659.274C977.639 660.415 951.111 659.17 926.441 645.065C901.771 630.96 901.462 596.978 904.391 581.75M1060.89 574.219L1059.93 574.075L1059.69 575.683L1060.65 575.826L1060.89 574.219ZM1013.06 490.177L1012.1 490.034L1011.86 491.641L1012.82 491.785L1013.06 490.177ZM820.268 471.587L819.305 471.443L819.065 473.05L820.028 473.194L820.268 471.587ZM1015.07 441.511L1014.11 441.367L1013.87 442.974L1014.83 443.118L1015.07 441.511ZM706.038 533.409L705.075 533.265L704.835 534.872L705.798 535.016L706.038 533.409Z" stroke="#85A1FF" stroke-width="8.79674" stroke-linecap="round" stroke-linejoin="round"/>
<path d="M530.349 668.13C527.594 673.703 522.274 681.71 514.961 688.459M514.961 688.459C506.435 696.328 495.2 702.488 482.158 701.09C457.929 698.493 443.838 685.81 439.822 679.793C432.404 683.678 413.713 689.79 398.292 683.154C379.016 674.859 376.64 658.57 383.925 646.273C391.209 633.976 412.567 630.471 421.39 640.074C420.503 627.407 425.544 600.222 452.804 592.819C486.88 583.565 511.793 618.514 507.666 635.425C514.29 631.846 531.596 627.142 547.824 636.958C564.052 646.774 561.958 664.669 558.882 672.389C567.775 669.361 587.572 667.43 595.623 683.929C605.686 704.552 580.434 723.409 554.229 703.563C544.61 709.244 523.291 714.178 514.961 688.459ZM480.236 634.517C473.803 630.37 461.945 634.655 460.27 645.878C458.176 659.906 477.101 674.841 492.876 659.349M406.323 574.901L405.018 574.706L404.693 576.881L405.999 577.076L406.323 574.901ZM593.197 626.19L591.892 625.995L591.568 628.17L592.873 628.365L593.197 626.19Z" stroke="#85A1FF" stroke-width="8.79674" stroke-linecap="round" stroke-linejoin="round"/>
<path d="M243.248 852.47C246.79 852.232 254.22 853.845 255.603 862.201C257.331 872.647 242.15 888.456 222.974 873.763C203.798 859.069 212.826 827.224 230.892 820.719C243.944 816.02 261.415 818.497 272.521 828.154M332.496 831.613C336.053 836.417 326.395 843.848 320.088 837.649C313.781 831.449 313.454 824.827 315.153 817.851C316.852 810.874 325.415 801.965 338.744 802.968C352.073 803.972 372.877 823.181 353.606 853.169C334.336 883.156 288.29 863.466 281.891 842.463C280.115 836.634 276.788 831.864 272.521 828.154M272.521 828.154C270.778 804.591 280.516 759.178 333.41 766.022C330.604 753.991 333.383 726.121 366.955 710.888C408.919 691.847 431.12 730.325 424.746 742.191C430.639 738.689 446.106 735.651 460.832 751.521C475.559 767.391 468.435 783.548 463.032 789.643C468.694 786.216 484.597 782.609 502.909 795.596C521.222 808.583 513.363 834.95 507.145 846.51C510.684 841.889 522.725 834.638 542.577 842.597C562.429 850.556 556.721 872.643 551.386 882.692M449.691 856.995C451.092 860.819 457.001 867.485 469.423 863.555C484.95 858.643 485.602 827.848 466.095 821.978C446.589 816.109 421.788 825.881 419.898 856.163C418.007 886.444 442.171 905.168 498.843 902.125C555.514 899.082 568.738 887.582 595.996 896.581C623.255 905.579 609.49 944.933 581.896 938.185C554.301 931.437 567.433 905.134 581.698 910.878M289.889 894.596C299.311 898.663 325.096 905.227 352.86 898.949C380.624 892.671 390.853 860.262 392.497 844.842M257.91 943.218C266.713 949.185 292.751 959.381 326.473 952.426C368.626 943.732 377.996 909.962 402.543 910.661C427.09 911.359 430.911 950.222 397.103 948.192M244.729 791.892L245.694 792.036L245.454 793.644L244.489 793.5L244.729 791.892ZM315.131 725.5L316.096 725.644L315.856 727.251L314.891 727.107L315.131 725.5ZM505.313 764.076L506.278 764.22L506.038 765.828L505.073 765.684L505.313 764.076ZM327.427 678.368L328.391 678.512L328.151 680.119L327.187 679.975L327.427 678.368ZM596.705 856.592L597.67 856.736L597.43 858.344L596.465 858.2L596.705 856.592Z" stroke="#85A1FF" stroke-width="8.79674" stroke-linecap="round" stroke-linejoin="round"/>
</g>
<defs>
<clipPath id="clip0_1_403">
<rect width="616.117" height="616.117" fill="white" transform="translate(20.9561 -258.965) rotate(8.49)"/>
</clipPath>
<clipPath id="clip1_1_403">
<rect width="616.117" height="616.117" fill="white" transform="translate(630.321 -168.004) rotate(8.49)"/>
</clipPath>
<clipPath id="clip2_1_403">
<rect width="616.117" height="616.117" fill="white" transform="translate(-70.0051 350.4) rotate(8.49)"/>
</clipPath>
<clipPath id="clip3_1_403">
<rect width="616.117" height="616.117" fill="white" transform="translate(539.36 441.361) rotate(8.49)"/>
</clipPath>
</defs>
</svg>
